<svg xmlns="http://www.w3.org/2000/svg" width="225" height="225" viewBox="0 0 225 225">
<g>
<path d="M 95.38 135.01 C93.57,136.17 90.64,136.97 88.38,136.94 C84.42,136.87 78.00,134.31 78.00,132.80 C78.00,132.17 97.41,110.35 111.45,95.21 C112.41,94.18 115.36,96.92 126.05,108.71 C133.43,116.84 141.42,125.62 143.83,128.21 L 148.19 132.91 L 144.85 134.95 C140.93,137.34 135.06,137.60 131.11,135.55 C129.57,134.76 124.90,130.48 120.73,126.05 C116.57,121.62 112.78,118.03 112.33,118.07 C111.87,118.12 108.57,121.50 105.00,125.59 C101.43,129.67 97.10,133.92 95.38,135.01 ZM 130.69 68.09 C121.23,78.49 113.05,86.96 112.50,86.92 C111.37,86.84 78.84,51.02 78.22,49.17 C77.69,47.57 84.04,45.00 88.52,45.00 C93.81,45.00 96.71,46.94 104.86,55.96 C108.91,60.43 112.54,63.96 112.92,63.80 C113.30,63.63 116.69,60.12 120.43,56.00 C128.82,46.77 132.59,44.61 139.18,45.24 C141.84,45.50 144.89,46.49 145.95,47.45 C147.83,49.15 147.42,49.71 130.69,68.09 ZM 170.25 177.88 C169.00,179.38 166.94,180.12 163.00,180.48 C153.60,181.35 151.00,178.98 151.00,169.57 C151.00,161.63 152.86,160.00 161.94,160.00 C167.98,160.00 169.09,160.29 170.44,162.22 C172.65,165.38 172.53,175.14 170.25,177.88 ZM 93.71 178.38 C91.99,180.73 81.55,181.65 78.00,179.77 C75.70,178.55 75.48,177.81 75.20,170.49 C74.84,160.74 75.54,160.00 85.13,160.00 C90.98,160.00 92.10,160.30 93.44,162.22 C95.37,164.98 95.55,175.86 93.71,178.38 ZM 55.80 177.01 C52.84,182.20 52.00,180.65 52.00,170.00 L 52.00 160.00 L 60.44 160.00 C68.03,160.00 69.04,160.22 70.44,162.22 C72.56,165.25 72.40,169.22 70.04,172.23 C68.30,174.43 68.24,174.94 69.51,176.61 C71.45,179.18 71.35,180.00 69.09,180.00 C68.04,180.00 66.04,178.65 64.65,177.00 C61.35,173.07 58.04,173.07 55.80,177.01 ZM 32.59 177.50 C31.69,178.88 30.27,180.00 29.44,180.00 C28.17,180.00 27.97,178.41 28.21,170.25 L 28.50 160.50 L 36.51 160.21 C41.88,160.02 45.10,160.35 46.28,161.22 C48.89,163.12 49.63,169.39 47.60,172.48 C46.15,174.70 45.25,175.00 40.09,175.00 C34.94,175.00 34.03,175.30 32.59,177.50 ZM 126.82 178.71 C126.24,179.42 125.12,180.00 124.34,180.00 C123.20,180.00 122.98,178.12 123.21,170.26 C123.46,161.75 123.73,160.48 125.33,160.17 C129.29,159.41 131.92,161.00 133.80,165.26 L 135.67 169.50 L 137.79 165.37 C140.01,161.06 141.55,160.00 145.58,160.00 C147.98,160.00 148.00,160.09 148.00,170.00 C148.00,175.60 147.58,180.00 147.06,180.00 C145.03,180.00 143.00,175.34 142.92,170.53 L 142.85 165.50 L 139.93 171.50 C138.33,174.80 136.56,177.65 136.00,177.83 C135.44,178.02 133.52,175.10 131.74,171.34 L 128.50 164.50 L 128.20 170.96 C128.03,174.52 127.41,178.00 126.82,178.71 ZM 120.00 179.26 C120.00,180.15 117.58,180.73 116.00,180.23 C115.18,179.97 113.26,178.60 111.75,177.19 L 109.00 174.63 L 106.20 177.31 C103.47,179.93 99.65,180.86 98.60,179.16 C98.31,178.70 99.64,176.81 101.54,174.96 C103.44,173.12 105.00,171.21 105.00,170.72 C105.00,170.24 103.40,167.89 101.45,165.50 C98.01,161.30 97.96,161.15 100.05,160.48 C101.67,159.97 103.03,160.60 105.55,163.05 L 108.90 166.30 L 112.48 163.15 C118.81,157.59 122.23,159.78 116.57,165.75 C114.62,167.81 113.01,169.84 113.01,170.25 C113.00,170.66 114.57,172.74 116.50,174.87 C118.43,177.00 120.00,178.98 120.00,179.26 ZM 183.05 176.92 C181.46,179.16 180.06,180.00 177.93,180.00 C176.32,180.00 175.00,179.71 175.00,179.35 C175.00,179.00 176.63,176.71 178.63,174.28 L 182.26 169.85 L 178.39 165.88 C175.19,162.61 174.77,161.75 176.01,160.97 C178.34,159.50 179.17,159.78 182.74,163.23 L 186.07 166.46 L 189.08 163.23 C192.24,159.85 192.82,159.61 195.42,160.61 C196.71,161.10 196.27,162.10 193.04,165.95 L 189.08 170.68 L 193.00 174.50 C195.15,176.60 196.68,178.70 196.40,179.16 C195.30,180.94 191.46,179.86 188.42,176.92 L 185.25 173.85 ZM 157.10 174.62 C157.91,175.59 159.72,176.00 162.41,175.80 L 166.50 175.50 L 166.50 165.50 L 156.50 165.50 L 156.19 169.32 C156.01,171.42 156.42,173.81 157.10,174.62 ZM 80.71 175.38 C81.11,175.77 83.24,175.96 85.46,175.80 L 89.50 175.50 L 89.50 165.50 L 80.00 164.89 L 80.00 169.78 C80.00,172.47 80.32,174.99 80.71,175.38 ZM 33.18 168.30 C32.86,171.10 32.88,171.11 38.18,170.80 C43.11,170.52 43.50,170.32 43.50,168.00 C43.50,165.67 43.17,165.50 38.50,165.50 C33.76,165.50 33.48,165.65 33.18,168.30 ZM 57.00 167.50 C57.00,169.99 57.22,170.10 61.75,169.80 C65.73,169.55 66.50,169.18 66.50,167.50 C66.50,165.82 65.73,165.45 61.75,165.20 C57.22,164.90 57.00,165.01 57.00,167.50 Z" fill="rgb(6,5,5)"/>
<path d="M 157.88 125.03 C157.64,125.10 157.42,125.17 157.21,125.23 C155.77,125.64 155.00,125.87 154.23,125.86 C153.21,125.85 152.19,125.44 149.66,124.54 C144.90,122.84 143.76,121.79 128.25,104.69 L 115.72 90.88 L 118.67 87.69 C120.29,85.94 126.75,78.95 133.03,72.16 C139.30,65.38 145.66,59.19 147.17,58.41 C151.20,56.33 158.88,56.63 162.82,59.03 L 166.15 61.06 L 160.93 66.78 C158.06,69.93 151.90,76.66 147.23,81.75 L 138.75 91.00 L 148.63 101.65 C154.06,107.51 160.21,114.24 162.29,116.60 L 166.08 120.90 L 163.66 122.48 C162.33,123.36 159.73,124.50 157.88,125.03 ZM 79.55 122.69 C74.03,126.65 65.82,126.26 61.41,121.84 C59.87,120.30 60.64,119.21 72.63,106.06 C79.71,98.30 85.62,91.61 85.76,91.20 C85.99,90.53 82.25,86.21 65.34,67.62 C62.40,64.39 60.00,61.40 60.00,60.99 C60.00,60.57 61.53,59.50 63.40,58.61 C67.59,56.63 75.18,56.52 78.80,58.41 C81.04,59.57 97.07,76.61 106.74,88.11 L 109.21 91.04 L 103.36 97.73 C92.51,110.12 82.62,120.49 79.55,122.69 Z" fill="rgb(226,111,7)"/>
<path d="M 0.00 112.50 L 0.00 0.00 L 112.50 0.00 L 225.00 0.00 L 225.00 112.50 L 225.00 225.00 L 112.50 225.00 L 0.00 225.00 L 0.00 112.50 ZM 93.71 178.38 C95.55,175.86 95.37,164.98 93.44,162.22 C92.10,160.30 90.98,160.00 85.13,160.00 C75.54,160.00 74.84,160.74 75.20,170.49 C75.48,177.81 75.70,178.55 78.00,179.77 C81.55,181.65 91.99,180.73 93.71,178.38 ZM 120.00 179.26 C120.00,178.98 118.43,177.00 116.50,174.87 C114.57,172.74 113.00,170.66 113.01,170.25 C113.01,169.84 114.62,167.81 116.57,165.75 C122.23,159.78 118.81,157.59 112.48,163.15 L 108.90 166.30 L 105.55 163.05 C103.03,160.60 101.67,159.97 100.05,160.48 C97.96,161.15 98.01,161.30 101.45,165.50 C103.40,167.89 105.00,170.24 105.00,170.72 C105.00,171.21 103.44,173.12 101.54,174.96 C99.64,176.81 98.31,178.70 98.60,179.16 C99.65,180.86 103.47,179.93 106.20,177.31 L 109.00 174.63 L 111.75 177.19 C113.26,178.60 115.18,179.97 116.00,180.23 C117.58,180.73 120.00,180.15 120.00,179.26 ZM 170.25 177.88 C172.53,175.14 172.65,165.38 170.44,162.22 C169.09,160.29 167.98,160.00 161.94,160.00 C152.86,160.00 151.00,161.63 151.00,169.57 C151.00,178.98 153.60,181.35 163.00,180.48 C166.94,180.12 169.00,179.38 170.25,177.88 ZM 32.59 177.50 C34.03,175.30 34.94,175.00 40.09,175.00 C45.25,175.00 46.15,174.70 47.60,172.48 C49.63,169.39 48.89,163.12 46.28,161.22 C45.10,160.35 41.88,160.02 36.51,160.21 L 28.50 160.50 L 28.21 170.25 C27.97,178.41 28.17,180.00 29.44,180.00 C30.27,180.00 31.69,178.88 32.59,177.50 ZM 55.80 177.01 C58.04,173.07 61.35,173.07 64.65,177.00 C66.04,178.65 68.04,180.00 69.09,180.00 C71.35,180.00 71.45,179.18 69.51,176.61 C68.24,174.94 68.30,174.43 70.04,172.23 C72.40,169.22 72.56,165.25 70.44,162.22 C69.04,160.22 68.03,160.00 60.44,160.00 L 52.00 160.00 L 52.00 170.00 C52.00,180.65 52.84,182.20 55.80,177.01 ZM 126.82 178.71 C127.41,178.00 128.03,174.52 128.20,170.96 L 128.50 164.50 L 131.74 171.34 C133.52,175.10 135.44,178.02 136.00,177.83 C136.56,177.65 138.33,174.80 139.93,171.50 L 142.85 165.50 L 142.92 170.53 C143.00,175.34 145.03,180.00 147.06,180.00 C147.58,180.00 148.00,175.60 148.00,170.00 C148.00,160.09 147.98,160.00 145.58,160.00 C141.55,160.00 140.01,161.06 137.79,165.37 L 135.67 169.50 L 133.80 165.26 C131.92,161.00 129.29,159.41 125.33,160.17 C123.73,160.48 123.46,161.75 123.21,170.26 C122.98,178.12 123.20,180.00 124.34,180.00 C125.12,180.00 126.24,179.42 126.82,178.71 ZM 183.05 176.92 L 185.25 173.85 L 188.42 176.92 C191.46,179.86 195.30,180.94 196.40,179.16 C196.68,178.70 195.15,176.60 193.00,174.50 L 189.08 170.68 L 193.04 165.95 C196.27,162.10 196.71,161.10 195.42,160.61 C192.82,159.61 192.24,159.85 189.08,163.23 L 186.07 166.46 L 182.74 163.23 C179.17,159.78 178.34,159.50 176.01,160.97 C174.77,161.75 175.19,162.61 178.39,165.88 L 182.26 169.85 L 178.63 174.28 C176.63,176.71 175.00,179.00 175.00,179.35 C175.00,179.71 176.32,180.00 177.93,180.00 C180.06,180.00 181.46,179.16 183.05,176.92 ZM 95.38 135.01 C97.10,133.92 101.43,129.67 105.00,125.59 C108.57,121.50 111.87,118.12 112.33,118.07 C112.78,118.03 116.57,121.62 120.73,126.05 C124.90,130.48 129.57,134.76 131.11,135.55 C135.06,137.60 140.93,137.34 144.85,134.95 L 148.19 132.91 L 143.83 128.21 C141.42,125.62 133.43,116.84 126.05,108.71 C115.36,96.92 112.41,94.18 111.45,95.21 C97.41,110.35 78.00,132.17 78.00,132.80 C78.00,134.31 84.42,136.87 88.38,136.94 C90.64,136.97 93.57,136.17 95.38,135.01 ZM 79.55 122.69 C82.62,120.49 92.51,110.12 103.36,97.73 L 109.21 91.04 L 106.74 88.11 C97.07,76.61 81.04,59.57 78.80,58.41 C75.18,56.52 67.59,56.63 63.40,58.61 C61.53,59.50 60.00,60.57 60.00,60.99 C60.00,61.40 62.40,64.39 65.34,67.62 C82.25,86.21 85.99,90.53 85.76,91.20 C85.62,91.61 79.71,98.30 72.63,106.06 C60.64,119.21 59.87,120.30 61.41,121.84 C65.82,126.26 74.03,126.65 79.55,122.69 ZM 157.88 125.03 C159.73,124.50 162.33,123.36 163.66,122.48 L 166.08 120.90 L 162.29 116.60 C160.21,114.24 154.06,107.51 148.63,101.65 L 138.75 91.00 L 147.23 81.75 C151.90,76.66 158.06,69.93 160.93,66.78 L 166.15 61.06 L 162.82 59.03 C158.88,56.63 151.20,56.33 147.17,58.41 C145.66,59.19 139.30,65.38 133.03,72.16 C126.75,78.95 120.29,85.94 118.67,87.69 L 115.72 90.88 L 128.25 104.69 C143.76,121.79 144.90,122.84 149.66,124.54 C154.38,126.23 153.83,126.19 157.88,125.03 ZM 130.69 68.09 C147.42,49.71 147.83,49.15 145.95,47.45 C144.89,46.49 141.84,45.50 139.18,45.24 C132.59,44.61 128.82,46.77 120.43,56.00 C116.69,60.12 113.30,63.63 112.92,63.80 C112.54,63.96 108.91,60.43 104.86,55.96 C96.71,46.94 93.81,45.00 88.52,45.00 C84.04,45.00 77.69,47.57 78.22,49.17 C78.84,51.02 111.37,86.84 112.50,86.92 C113.05,86.96 121.23,78.49 130.69,68.09 ZM 80.71 175.38 C80.32,174.99 80.00,172.47 80.00,169.78 L 80.00 164.89 L 84.75 165.20 L 89.50 165.50 L 89.50 170.50 L 89.50 175.50 L 85.46 175.80 C83.24,175.96 81.11,175.77 80.71,175.38 ZM 157.10 174.62 C156.42,173.81 156.01,171.42 156.19,169.32 L 156.50 165.50 L 161.50 165.50 L 166.50 165.50 L 166.50 170.50 L 166.50 175.50 L 162.41 175.80 C159.72,176.00 157.91,175.59 157.10,174.62 ZM 33.18 168.30 C33.48,165.65 33.76,165.50 38.50,165.50 C43.17,165.50 43.50,165.67 43.50,168.00 C43.50,170.32 43.11,170.52 38.18,170.80 C32.88,171.11 32.86,171.10 33.18,168.30 ZM 57.00 167.50 C57.00,165.01 57.22,164.90 61.75,165.20 C65.73,165.45 66.50,165.82 66.50,167.50 C66.50,169.18 65.73,169.55 61.75,169.80 C57.22,170.10 57.00,169.99 57.00,167.50 Z" fill="rgb(254,254,254)"/>
</g>
</svg>